<svg xmlns="http://www.w3.org/2000/svg" viewBox="0 0 24.8 29.16"><defs><style>.cls-1{fill:#f2d472;}</style></defs><g id="Layer_2" data-name="Layer 2"><g id="Layer_23" data-name="Layer 23"><path class="cls-1" d="M24.8,17.05V26.8a2.18,2.18,0,0,1-2.36,2.36H2.37A2.19,2.19,0,0,1,0,26.77V2.36A2.2,2.2,0,0,1,1.7.06,2.78,2.78,0,0,1,2.34,0h17.3A2.19,2.19,0,0,1,22,2.32V23.86c0,.58-.25.9-.7.92a.68.68,0,0,1-.74-.56,2.91,2.91,0,0,1,0-.51V2.54c0-.13,0-.27,0-.41a.71.71,0,0,0-.69-.67H2.46c-.76,0-1,.22-1,1V26.73c0,.76.22,1,1,1H22.38c.73,0,1-.24,1-1V17c0-.65.24-1,.71-1S24.8,16.38,24.8,17.05Z"/><path class="cls-1" d="M18.24,6.13a1.47,1.47,0,0,0-1.58-1.58H5.21A1.45,1.45,0,0,0,3.66,6.11v3a1.46,1.46,0,0,0,1.62,1.63H16.7a1.45,1.45,0,0,0,1.54-1.54ZM16.77,9.28H5.13V6H16.77Z"/><path class="cls-1" d="M18.24,19a.75.75,0,0,1-.86.73H4.57c-.56,0-.87-.24-.9-.67a.69.69,0,0,1,.57-.77,1.89,1.89,0,0,1,.41,0H17.39C17.91,18.24,18.24,18.52,18.24,19Z"/><path class="cls-1" d="M18.23,13.19a.7.7,0,0,1-.64.65c-.27,0-.55,0-.82,0H4.5c-.52,0-.82-.26-.84-.7a.72.72,0,0,1,.65-.75h13a1.51,1.51,0,0,1,.47,0A.69.69,0,0,1,18.23,13.19Z"/><path class="cls-1" d="M18.24,16a.75.75,0,0,1-.68.73h-13c-.52,0-.84-.28-.85-.72a.7.7,0,0,1,.64-.72,2.29,2.29,0,0,1,.37,0H17.55A.73.73,0,0,1,18.24,16Z"/><path class="cls-1" d="M12.16,22.39a1.14,1.14,0,0,1-.62.2c-1.17,0-2.35,0-3.52,0H4.39a.69.69,0,0,1-.73-.73.71.71,0,0,1,.72-.71h7.25a.71.71,0,0,1,.72.47A.62.62,0,0,1,12.16,22.39Z"/></g></g></svg>