<svg xmlns="http://www.w3.org/2000/svg" viewBox="0 0 28.97 28.97"><defs><style>.cls-1{fill:#f2d472;}</style></defs><g id="Layer_2" data-name="Layer 2"><g id="Layer_22" data-name="Layer 22"><path class="cls-1" d="M14.49,2.26a4.52,4.52,0,0,0-2.75.93L4,9.06a4.56,4.56,0,0,0-1.78,3.6v9.52A4.53,4.53,0,0,0,6.79,26.7H22.18a4.53,4.53,0,0,0,4.53-4.52V12.66a4.56,4.56,0,0,0-1.78-3.6l-7.7-5.87A4.51,4.51,0,0,0,14.49,2.26ZM22.18,29H6.79A6.8,6.8,0,0,1,0,22.18V12.66a6.82,6.82,0,0,1,2.67-5.4l7.7-5.87a6.8,6.8,0,0,1,8.23,0l7.7,5.87A6.82,6.82,0,0,1,29,12.66v9.52A6.8,6.8,0,0,1,22.18,29Z"/><path class="cls-1" d="M10.47,13.8a1.13,1.13,0,0,0-1.13,1.13v4.25a1.13,1.13,0,0,0,1.13,1.13h8.09a1.14,1.14,0,0,0,1.13-1.13V14.93a1.14,1.14,0,0,0-1.13-1.13H17a1.36,1.36,0,0,0-1.36,1.36h0v2.09a1.13,1.13,0,1,1-2.26,0V15.17A1.37,1.37,0,0,0,12,13.8Zm8.09,8.77H10.47a3.4,3.4,0,0,1-3.4-3.39V14.93a3.4,3.4,0,0,1,3.4-3.39H12a3.61,3.61,0,0,1,2.5,1,3.58,3.58,0,0,1,2.49-1h1.53A3.39,3.39,0,0,1,22,14.93v4.25A3.39,3.39,0,0,1,18.56,22.57Z"/></g></g></svg>