<svg xmlns="http://www.w3.org/2000/svg" viewBox="0 0 31.93 24.63"><defs><style>.cls-1{fill:#536841;}</style></defs><g id="Layer_2" data-name="Layer 2"><g id="Layer_22" data-name="Layer 22"><path class="cls-1" d="M30.56,2.74H1.37A1.37,1.37,0,0,1,1.37,0H30.56a1.37,1.37,0,1,1,0,2.74Z"/><path class="cls-1" d="M30.56,13.68H12.32a1.37,1.37,0,1,1,0-2.73H30.56a1.37,1.37,0,1,1,0,2.73ZM5,13.68H1.37a1.37,1.37,0,1,1,0-2.73H5a1.37,1.37,0,1,1,0,2.73Z"/><path class="cls-1" d="M30.56,24.63H1.37a1.37,1.37,0,1,1,0-2.73H30.56a1.37,1.37,0,1,1,0,2.73Z"/></g></g></svg>