<svg xmlns="http://www.w3.org/2000/svg" viewBox="0 0 28.45 28.45"><defs><style>.cls-1{fill:#f2d472;}</style></defs><g id="Layer_2" data-name="Layer 2"><g id="Layer_22" data-name="Layer 22"><path class="cls-1" d="M9.83,28.45a3.1,3.1,0,0,1-1.11-.2c-.18-.07-.35-.14-.51-.22a4.44,4.44,0,0,1-2.15-2.7,1.05,1.05,0,0,1,2-.79c.29.71.59,1.37,1,1.57l.44.18c.5.2,1.28-.13,2.1-.48a6.72,6.72,0,0,1,2.64-.73,6.76,6.76,0,0,1,2.64.73c.82.35,1.59.68,2.1.48l.43-.18c.5-.22.81-1,1.15-1.83A7,7,0,0,1,21.9,21.9a7,7,0,0,1,2.38-1.35c.83-.34,1.61-.65,1.83-1.15l.18-.43c.2-.5-.13-1.28-.48-2.1a6.76,6.76,0,0,1-.73-2.64,6.72,6.72,0,0,1,.73-2.64c.35-.83.68-1.6.48-2.11l-.18-.43a1.38,1.38,0,0,0-.7-.64,11.29,11.29,0,0,0-1.11-.5l-.56-.23a1.05,1.05,0,1,1,.83-1.93l.51.21a13,13,0,0,1,1.36.61A3.55,3.55,0,0,1,28,8.21c.07.16.14.33.2.5a4.76,4.76,0,0,1-.5,3.7,5.25,5.25,0,0,0-.56,1.82A5.21,5.21,0,0,0,27.74,16a4.76,4.76,0,0,1,.5,3.7c-.06.17-.13.34-.2.5a4.8,4.8,0,0,1-3,2.26,5.25,5.25,0,0,0-1.68.89,5.25,5.25,0,0,0-.89,1.68c-.46,1.13-1,2.41-2.26,3a4.4,4.4,0,0,1-.5.21,4.76,4.76,0,0,1-3.7-.5,5.21,5.21,0,0,0-1.81-.56,5.19,5.19,0,0,0-1.82.56A6.75,6.75,0,0,1,9.83,28.45Zm-6.11-5.9a1.09,1.09,0,0,1-.39-.08A4.71,4.71,0,0,1,.42,20.24l-.21-.5A4.85,4.85,0,0,1,.71,16a5.21,5.21,0,0,0,.56-1.81,5.19,5.19,0,0,0-.56-1.82,4.85,4.85,0,0,1-.5-3.7c.07-.17.13-.33.21-.5A4.84,4.84,0,0,1,3.39,6a5.3,5.3,0,0,0,1.67-.89A5.3,5.3,0,0,0,6,3.39a4.79,4.79,0,0,1,2.25-3A5.49,5.49,0,0,1,8.72.21a4.79,4.79,0,0,1,3.69.5,5.19,5.19,0,0,0,1.82.56A5.21,5.21,0,0,0,16,.71a4.85,4.85,0,0,1,3.7-.5,5.32,5.32,0,0,1,.5.21,4,4,0,0,1,2,2.31,1,1,0,1,1-1.92.84c-.32-.73-.58-1.09-.9-1.23L19,2.16c-.51-.2-1.28.14-2.1.48a6.76,6.76,0,0,1-2.64.73,6.72,6.72,0,0,1-2.64-.73,3.44,3.44,0,0,0-2.11-.48l-.43.18c-.5.22-.81,1-1.15,1.83A6.8,6.8,0,0,1,6.55,6.55,7,7,0,0,1,4.17,7.9c-.83.34-1.61.65-1.83,1.15l-.18.44c-.19.5.14,1.27.49,2.1a6.88,6.88,0,0,1,.72,2.64,6.93,6.93,0,0,1-.72,2.64A3.43,3.43,0,0,0,2.16,19l.18.43c.2.46.86.76,1.77,1.12a1.05,1.05,0,0,1-.39,2Z"/><circle class="cls-1" cx="11.14" cy="11.14" r="1.11"/><circle class="cls-1" cx="17.31" cy="17.31" r="1.11"/><path class="cls-1" d="M11.09,18.41a1,1,0,0,1-.74-.3,1.06,1.06,0,0,1,0-1.49l6.27-6.27a1.06,1.06,0,0,1,1.49,0,1,1,0,0,1,0,1.48l-6.28,6.28A1,1,0,0,1,11.09,18.41Z"/></g></g></svg>