<svg xmlns="http://www.w3.org/2000/svg" viewBox="0 0 30.93 33.91"><defs><style>.cls-1{fill:#f2d472;}</style></defs><g id="Layer_2" data-name="Layer 2"><g id="Layer_23" data-name="Layer 23"><path class="cls-1" d="M30.77,22.53a9.53,9.53,0,0,0-5.62-7.19c-.63-.29-1.3-.47-2-.72V14.3c0-1.93,0-3.87,0-5.8a1.21,1.21,0,0,0-.36-.88L16,.45A5,5,0,0,0,15.4,0H3.32A.31.31,0,0,1,3.2.05,3.8,3.8,0,0,0,0,3.87Q0,14.61,0,25.36a4.06,4.06,0,0,0,.22,1.29A3.77,3.77,0,0,0,4,29.2h8.53a.51.51,0,0,1,.48.26,9.73,9.73,0,0,0,17.77-6.92Zm-14.83-20,4.83,5.08c-1.11,0-2.11,0-3.12,0A1.66,1.66,0,0,1,16,5.89C15.92,4.79,15.94,3.69,15.94,2.48ZM12.28,20.25a.4.4,0,0,1-.42.26c-1.94,0-3.87,0-5.81,0a2.37,2.37,0,0,0-.46,0,.68.68,0,0,0-.09,1.32,1.65,1.65,0,0,0,.49.06h5.7a9.92,9.92,0,0,0,.41,5.83l-.25,0H4A2.34,2.34,0,0,1,1.51,26a3.17,3.17,0,0,1-.09-.82q0-10.56,0-21.13A2.41,2.41,0,0,1,3.21,1.5,3.14,3.14,0,0,1,4,1.41H14.22l.31,0v.36c0,1.32,0,2.65,0,4a3.06,3.06,0,0,0,2.38,3.11,3.55,3.55,0,0,0,1,.1c1.15,0,2.3,0,3.45,0h.39v5.47c-.6,0-1.2.05-1.79.12a9.79,9.79,0,0,0-5,2.11,1.06,1.06,0,0,1-.59.21H6a2,2,0,0,0-.49.05.66.66,0,0,0-.5.69.67.67,0,0,0,.56.64,2.37,2.37,0,0,0,.46,0c2.29,0,4.58,0,6.87,0h.47c-.09.16-.15.25-.21.35C12.88,19.19,12.56,19.71,12.28,20.25Zm8.9,12.26a8.31,8.31,0,1,1,8.31-8.31A8.33,8.33,0,0,1,21.18,32.51Z"/><path class="cls-1" d="M20.77,7.56c-1.11,0-2.11,0-3.12,0A1.66,1.66,0,0,1,16,5.89c0-1.1,0-2.2,0-3.41Z"/><path class="cls-1" d="M13.5,14.42a.79.79,0,0,1-.77.35H5.93c-.57,0-.89-.25-.9-.69s.31-.71.91-.72h6.87A.7.7,0,0,1,13.5,14.42Z"/><path class="cls-1" d="M26,24.14a.67.67,0,0,1-.56.46.82.82,0,0,1-.72-.33l-2.5-2.69-.29-.31v.43q0,3.5,0,7a2,2,0,0,1-.05.49.68.68,0,0,1-.66.5.69.69,0,0,1-.67-.54,2.7,2.7,0,0,1,0-.49V21.37l-.08,0c-.9,1-1.79,1.92-2.7,2.87a1.47,1.47,0,0,1-.53.36.61.61,0,0,1-.72-.28.65.65,0,0,1,0-.75,1.21,1.21,0,0,1,.2-.26l3.91-4.19a.75.75,0,0,1,1.25,0l4,4.23A.72.72,0,0,1,26,24.14Z"/></g></g></svg>