<svg xmlns="http://www.w3.org/2000/svg" viewBox="0 0 41.21 37.36"><defs><style>.cls-1{fill:#f2d472;}</style></defs><g id="Layer_2" data-name="Layer 2"><g id="Layer_23" data-name="Layer 23"><path class="cls-1" d="M40.17,17.36H31.41c0-.51,0-1,0-1.41a1.07,1.07,0,0,0-.67-1.15c-3-1.69-6-3.4-9.07-5.1-.13-.07-.33-.2-.33-.3,0-.88,0-1.76,0-2.67.59,0,1.12,0,1.66,0a1.76,1.76,0,0,1,.27,0c0,.33,0,.65,0,1a.67.67,0,0,0,.69.73c1.94,0,3.89,0,5.83,0h.08a.67.67,0,0,0,.59-.77,1.43,1.43,0,0,0-.14-.5,2.76,2.76,0,0,1,0-2.63c.4-.84.06-1.26-.87-1.27H27.12V2.58c0-.78-.22-1-1-1h-4.8c0-.29,0-.51,0-.74C21.3.31,21,0,20.59,0s-.68.32-.7.83v.32c0,2.64,0,5.29,0,7.93a.64.64,0,0,1-.39.65c-3,1.68-6,3.39-9,5.06a1.08,1.08,0,0,0-.66,1.15c0,.45,0,.91,0,1.41H1a.94.94,0,0,0-1,.53v19a1,1,0,0,0,1,.49H40.17c.83,0,1-.2,1-1V18.4C41.21,17.56,41,17.36,40.17,17.36ZM26.24,6.72c.63,0,.87-.27.86-.89,0-.3,0-.61,0-.92a1,1,0,0,0,0-.13h1.58a2.18,2.18,0,0,0,.08,2.29H25c-.09,0-.19-.11-.29-.17.1-.06.2-.16.3-.17C25.38,6.71,25.81,6.73,26.24,6.72ZM21.35,3l.28,0c1.34,0,2.67,0,4,0V5.28H21.35ZM9.78,35.91H1.46V18.8H9.78Zm10.08,0H16.2V27.85h3.66Zm5.15,0H21.34v-8H25Zm5,0H26.47V27.45c0-.84-.21-1.05-1-1.05H15.76c-.8,0-1,.22-1,1V35.9H11.19v-.44q0-9.51,0-19a.58.58,0,0,1,.35-.59q4.37-2.44,8.72-4.91a.65.65,0,0,1,.73,0q4.34,2.45,8.68,4.88a.55.55,0,0,1,.35.55Q30,26,30,35.65C30,35.73,30,35.81,30,35.92Zm9.75,0H31.43V18.8h8.32Z"/><path class="cls-1" d="M20.59,12.91a3,3,0,1,0,0,5.94,3,3,0,0,0,3-3A3,3,0,0,0,20.59,12.91Zm0,4.53a1.56,1.56,0,0,1,0-3.11,1.57,1.57,0,0,1,1.55,1.61A1.54,1.54,0,0,1,20.62,17.44Z"/><rect class="cls-1" x="19.21" y="20.37" width="2.8" height="1.37"/><rect class="cls-1" x="19.2" y="23.68" width="2.8" height="1.36"/><rect class="cls-1" x="13.37" y="20.38" width="2.79" height="1.35"/><rect class="cls-1" x="25.04" y="20.37" width="2.79" height="1.36"/><rect class="cls-1" x="13.38" y="23.68" width="2.79" height="1.36"/><rect class="cls-1" x="25.04" y="23.67" width="2.78" height="1.37"/><rect class="cls-1" x="3.16" y="20.36" width="1.37" height="2.79"/><rect class="cls-1" x="6.66" y="20.37" width="1.37" height="2.79"/><rect class="cls-1" x="3.17" y="25.95" width="1.36" height="2.8"/><rect class="cls-1" x="3.15" y="31.57" width="1.38" height="2.77"/><rect class="cls-1" x="6.67" y="31.56" width="1.36" height="2.8"/><rect class="cls-1" x="6.67" y="25.94" width="1.36" height="2.8"/><rect class="cls-1" x="33.17" y="20.38" width="1.38" height="2.77"/><rect class="cls-1" x="36.67" y="20.37" width="1.38" height="2.79"/><rect class="cls-1" x="36.67" y="25.95" width="1.37" height="2.8"/><rect class="cls-1" x="33.18" y="31.56" width="1.38" height="2.79"/><rect class="cls-1" x="36.68" y="31.55" width="1.37" height="2.79"/><rect class="cls-1" x="33.18" y="25.95" width="1.37" height="2.79"/></g></g></svg>